<svg xmlns="http://www.w3.org/2000/svg" viewBox="49.83 173.38 424 303.5"><g id="freepik--Table--inject-167"><line x1="80.44" y1="450.56" x2="50.33" y2="450.56" style="fill:none;stroke:#263238;stroke-miterlimit:10"></line><line x1="473.33" y1="450.56" x2="90.25" y2="450.56" style="fill:none;stroke:#263238;stroke-miterlimit:10"></line></g><g id="freepik--Character--inject-167"><path d="M357.64,450.22l6.44-97.8,4.74-46.5-13-14.51-6.52-4.74s-9.18,8-15.69,9.77S320.84,300,320.84,300s-22.21,41.76-24,60.71-4.74,89.15-4.74,89.15l2.47.36Z" style="fill:#9e9e9e;stroke:#263238;stroke-miterlimit:10"></path><path d="M327.11,369.59s-1.11-.57,1.11-6.29" style="fill:none;stroke:#263238;stroke-miterlimit:10"></path><path d="M324.5,299a192.16,192.16,0,0,1,1.83,23.84s6.67-2.67,12-12a107.77,107.77,0,0,0,7.58-15.66Z" style="fill:#263238;stroke:#263238;stroke-miterlimit:10"></path><path d="M357.64,450.22l5.79-87.93c-5.68,2.9-16.89,7.69-29.26,7.9-14.82.25-33.17-11.26-33.17-11.26l-4.13,1.62c0,.05,0,.11,0,.16-1.78,19-4.74,89.15-4.74,89.15l2.47.36Z" style="fill:#fff;stroke:#263238;stroke-miterlimit:10"></path><path d="M348,401c0,22.65.78,44.44,1,49.2h43.65c.6-7.06,4.36-51,6.29-66.75,2.11-17.21,15.95-42.83,15.95-52s2.81-7.72-9.83-14.39-40.52-21.07-44.38-22.83-8.08-6-8.08-6,1.4,8.78,1,32.65S348,375.39,348,401Z" style="fill:#F5DCF9"></path><g style="opacity:0.2"><path d="M352.6,288.32a118.58,118.58,0,0,1,.9,12.52V289.17C352.94,288.66,352.6,288.32,352.6,288.32Z"></path><path d="M410,345.47v3c.34-.91.68-1.79,1-2.66v-.36h.13c.13-.33.25-.67.37-1H411V332h3.87c0-.15,0-.31,0-.46s0-.36,0-.54H411V320.34c-.31-.19-.64-.37-1-.57V331H399.5v-12.5h8.12l-1.88-1H399.5V314.2l-1-.53v3.8H388v-9.26l-1-.52v9.78H376.5V305h5.23l-1.94-1H376.5v-1.69l-1-.52V304H365v-7.55c-.35-.18-.68-.35-1-.5V304H353.6c0,.33,0,.66,0,1H364v12.5H353.69c0,.33,0,.66,0,1H364V331H353.5v-4.75c-.2,4.88-.56,10-1,15.21v3h-.26l-.09,1h.35V358H351l-.1,1h1.65v12.5h-2.84l-.09,1h2.93V385h-3.9l-.06,1h4v12.5h-4.43c0,.34,0,.67,0,1h4.44V412h-4.41c0,.34,0,.67,0,1h4.4v12.5h-4.2c0,.34,0,.67,0,1h4.18v23.75h1V426.47H364v23.75h1V426.47h10.5v23.75h1V426.47H387v23.75h1V426.47h6.73c0-.33,0-.66.09-1H388V413H396c0-.33.07-.66.1-1H388v-12.5h9.24c0-.34.06-.66.1-1H388V386h10.5v1.33l.44-3.83c.14-1.12.33-2.28.56-3.47v-7.53h1.87l.3-1H399.5V359H406c.13-.33.25-.67.38-1H399.5v-12.5ZM399.5,332H410v12.5H399.5ZM364,425.47H353.5V413H364Zm0-13.5H353.5v-12.5H364Zm0-13.5H353.5V386H364Zm0-13.5H353.5v-12.5H364Zm0-13.5H353.5V359H364Zm0-13.5H353.5v-12.5H364Zm0-13.5H353.5V332H364Zm11.5,81H365V413h10.5Zm0-13.5H365v-12.5h10.5Zm0-13.5H365V386h10.5Zm0-13.5H365v-12.5h10.5Zm0-13.5H365V359h10.5Zm0-13.5H365v-12.5h10.5Zm0-13.5H365V332h10.5Zm0-13.5H365v-12.5h10.5Zm0-13.5H365V305h10.5Zm11.5,108H376.5V413H387Zm0-13.5H376.5v-12.5H387Zm0-13.5H376.5V386H387Zm0-13.5H376.5v-12.5H387Zm0-13.5H376.5V359H387Zm0-13.5H376.5v-12.5H387Zm0-13.5H376.5V332H387Zm0-13.5H376.5v-12.5H387Zm11.5,54H388v-12.5h10.5Zm0-13.5H388V359h10.5Zm0-13.5H388v-12.5h10.5Zm0-13.5H388V332h10.5Zm0-13.5H388v-12.5h10.5Z"></path></g><path d="M348,401c0,22.65.78,44.44,1,49.2h43.65c.6-7.06,4.36-51,6.29-66.75,2.11-17.21,15.95-42.83,15.95-52s2.81-7.72-9.83-14.39-40.52-21.07-44.38-22.83-8.08-6-8.08-6,1.4,8.78,1,32.65S348,375.39,348,401Z" style="fill:none;stroke:#263238;stroke-miterlimit:10"></path><path d="M352.6,288.32s1.4,8.78,1,32.65c-.08,6-.49,12.48-1,19.16,1.2-1.65,5.07-6.92,6-7.22,1.05-.35,6.67,4.92,11.23,5.62s6.32.7,1.41-4.57-7-20.71-8.78-32.3a45,45,0,0,0-1.63-7.32l-.12,0C356.81,292.54,352.6,288.32,352.6,288.32Z" style="fill:#263238;stroke:#263238;stroke-miterlimit:10"></path><path d="M381.41,396.92c3.23-1.47,5.77-2.74,5.77-2.74l1.19,9.18s-17.48,7.7-27.25,8.29-10.66.89-10.66.89l.29-8.88" style="fill:none;stroke:#263238;stroke-miterlimit:10"></path><path d="M372.66,400.51c1.79-.6,3.89-1.45,5.94-2.34" style="fill:none;stroke:#263238;stroke-miterlimit:10"></path><path d="M354,402.77a117.16,117.16,0,0,0,15.26-1.39" style="fill:none;stroke:#263238;stroke-miterlimit:10"></path><line x1="388.37" y1="403.36" x2="388.96" y2="410.47" style="fill:none;stroke:#263238;stroke-miterlimit:10"></line><path d="M254.39,450.22h49.12c.11-3.85,1.53-52.78,2.49-77.75,1-26,18.64-65.44,18.64-65.44s2.36-5.56-.14-8.06-8.5-1.5-13,2-46,21.5-48.5,24-2,11-3,21-17.5,79-17.5,79-4.5,1-6,2-1.5,4-1.5,4,2,.5,8,3.5C248.52,437.23,253.61,448.43,254.39,450.22Z" style="fill:#F5DCF9"></path><path d="M318,318.47v5.11c.34-.92.67-1.81,1-2.67v-2.44h.94l.39-1H319V305h6.3c.07-.31.15-.65.2-1H319v-6.28c-.33.05-.66.1-1,.18V304H307.5v-.68l-1,.51V304h-.34l-2,1h2.34v12.5H296V308.9l-1,.47v8.1H284.5v-3.19l-1,.47v2.72h-5.81l-2.12,1h7.93V331H273V319.7l-1,.48V331H261.5v-2.52a88.39,88.39,0,0,0-1,11v5h-.36l-.09,1h.45V358h-2.69l-.21,1h2.9v12.5h-5.61c-.07.33-.15.67-.22,1h5.83V385h-8.65c-.08.34-.15.67-.23,1h8.88v12.5H250V393l-1,4.32v1.13h-.26l-.23,1H249V412h-3.42l-.24,1H249v12.5h-8.49a26.22,26.22,0,0,0-3,1h0v5.44c.3.12.63.26,1,.43v-5.87H249v14c.35.5.68,1,1,1.51v-15.5h10.5v23.75h1V426.47H272v23.75h1V426.47h10.5v23.75h1V426.47H295v23.75h1V426.47h8.21l0-1H296V413h8.63l0-1H296v-12.5h9.06l0-1H296V386h9.51c0-.33,0-.67,0-1H296v-12.5h10c0-.33,0-.66.05-1H296V359h10.5v7.39c.26-2.13.59-4.32,1-6.54V359h.16c.06-.33.13-.66.19-1h-.35v-12.5h3.35c.09-.33.19-.66.28-1H307.5V332H315c.12-.33.23-.67.34-1H307.5v-12.5ZM307.5,305H318v12.5H307.5Zm-47,120.5H250V413h10.5Zm0-13.5H250v-12.5h10.5Zm11.5,13.5H261.5V413H272Zm0-13.5H261.5v-12.5H272Zm0-13.5H261.5V386H272Zm0-13.5H261.5v-12.5H272Zm0-13.5H261.5V359H272Zm0-13.5H261.5v-12.5H272Zm0-13.5H261.5V332H272Zm11.5,81H273V413h10.5Zm0-13.5H273v-12.5h10.5Zm0-13.5H273V386h10.5Zm0-13.5H273v-12.5h10.5Zm0-13.5H273V359h10.5Zm0-13.5H273v-12.5h10.5Zm0-13.5H273V332h10.5Zm11.5,81H284.5V413H295Zm0-13.5H284.5v-12.5H295Zm0-13.5H284.5V386H295Zm0-13.5H284.5v-12.5H295Zm0-13.5H284.5V359H295Zm0-13.5H284.5v-12.5H295Zm0-13.5H284.5V332H295Zm0-13.5H284.5v-12.5H295Zm11.5,27H296v-12.5h10.5Zm0-13.5H296V332h10.5Zm0-13.5H296v-12.5h10.5Z" style="opacity:0.2"></path><path d="M254.39,450.22h49.12c.11-3.85,1.53-52.78,2.49-77.75,1-26,18.64-65.44,18.64-65.44s2.36-5.56-.14-8.06-8.5-1.5-13,2-46,21.5-48.5,24-2,11-3,21-17.5,79-17.5,79-4.5,1-6,2-1.5,4-1.5,4,2,.5,8,3.5C248.52,437.23,253.61,448.43,254.39,450.22Z" style="fill:none;stroke:#263238;stroke-miterlimit:10"></path><path d="M235,431s2,.5,8,3.5,11.5,16,11.5,16h9.69c.61-1.82,2.1-8.44-4.69-16.5-8-9.5-17-9-17-9s-4.5,1-6,2S235,431,235,431Z" style="fill:#263238;stroke:#263238;stroke-miterlimit:10"></path><path d="M318.46,297.78c-2.15,5.69-7.24,18.56-11.46,24.69-5.5,8-15.5,14.5-12,17.5s13.5-6.5,13.5-6.5,2.5,7,3,9a.75.75,0,0,0,.13.25,314.24,314.24,0,0,1,13-35.69s2.36-5.56-.14-8.06C323.2,297.67,321,297.33,318.46,297.78Z" style="fill:#263238;stroke:#263238;stroke-miterlimit:10"></path><path d="M281.94,346.05a52.05,52.05,0,0,0,.56-5.58" style="fill:none;stroke:#263238;stroke-miterlimit:10"></path><path d="M274,451.47s1.5-32,1.5-50.5c0-13.33,3.63-35.75,5.67-49.48" style="fill:none;stroke:#263238;stroke-miterlimit:10"></path><path d="M276.5,394s8,2.5,12,3l12,1.5-.91,11.33s-.59-.33-9.59-3.33-14.5-5.5-14.5-5.5" style="fill:none;stroke:#263238;stroke-miterlimit:10"></path><path d="M299.59,409.8S299,432,299,435s-9,1-9,1" style="fill:none;stroke:#263238;stroke-miterlimit:10"></path><path d="M306.77,287.22s9.43,13.56,17.87,19.81,15.64-2.5,21.27-11.88,9.38-16.26,12.19-24.39,0-21.57-11.25-32.2-37.53-26.27-44.09-18.14-12.82,26-8.45,41.27A80.67,80.67,0,0,0,306.77,287.22Z" style="fill:#9e9e9e;stroke:#263238;stroke-miterlimit:10"></path><path d="M302.8,258.05a19,19,0,0,1,10.91,0" style="fill:none;stroke:#263238;stroke-linecap:round;stroke-miterlimit:10;stroke-width:2px"></path><path d="M310.87,266.42c.3,1.62-.08,3.05-.85,3.19s-1.62-1.06-1.92-2.69.08-3.05.85-3.19S310.57,264.79,310.87,266.42Z" style="fill:#263238"></path><path d="M338.69,266.85c.29,1.62-.09,3-.85,3.19s-1.62-1.06-1.92-2.69.08-3.05.85-3.19S338.39,265.22,338.69,266.85Z" style="fill:#263238"></path><path d="M318.08,288.9a29.45,29.45,0,0,0,11.25,1.56c6.57-.31,12.2-5,12.2-5" style="fill:none;stroke:#263238;stroke-miterlimit:10"></path><path d="M303.73,227.33s13.89,31.68,15.63,32.55,5.21-9.55,5.21-9.55S329.34,259,335,261.61s7.38-1.73,7.38-1.73a97,97,0,0,1,8.25,5.21l2.17,1.73,2.17,7.81s-6.51,21.27-4.34,23.88,14.32-.87,14.32-.87-3,4.34.87,4.34,10.85.87,20.83-12.59,10.85-35.15,10.85-35.15,4.77,5.2,5.21-1.31-5.64-17.36-5.64-17.36,9.54,9.55,8.68-.43-6.51-21.27-8.68-23.87-15.2-10-15.2-10,5.21-.87,1.31-6.95-18.23-7.81-23.44-7.81-16.06,1.74-16.06,1.74,6.95-13.46-.43-14.33-20.4,13.46-20.4,13.46-13-10.42-16.93-8.25-1.3,5.21-1.3,5.21-16.92,1.3-21.7,8.68.87,11.72.87,11.72-30.38,20.83-25.61,28.64,13.46.44,13.46.44-12.16,31.25-10.42,33.42,10-.87,10-.87-.43,25.17,6.08,27.78,7.81-2.17,7.81-2.17,3.47,3.47,11.29,3.9,10.41-8.68,10.41-8.68-8.68-20.4-8.24-37.32S303.73,227.33,303.73,227.33Z" style="fill:#263238;stroke:#263238;stroke-miterlimit:10"></path><path d="M321.21,263.88s-3.13,16.26-.63,19.7,11.26,0,11.88-1.87" style="fill:#9e9e9e;stroke:#263238;stroke-miterlimit:10"></path><ellipse cx="308.23" cy="264.82" rx="12.35" ry="9.07" style="fill:none;stroke:#263238;stroke-miterlimit:10"></ellipse><ellipse cx="337.93" cy="264.2" rx="12.35" ry="9.07" style="fill:none;stroke:#263238;stroke-miterlimit:10"></ellipse><path d="M321.21,263.88s2.5-1.87,4.37.32" style="fill:none;stroke:#263238;stroke-miterlimit:10"></path><path d="M218.31,436.91s15.7-4.43,20.53-5.23,14.5,8.05,16.11,12.88-.45,5.91-.45,5.91l-32.17-1.07Z" style="fill:#9e9e9e;stroke:#263238;stroke-miterlimit:10"></path><path d="M224,435.35s11.85,4.44,14.81,6.22,2.07,5.33.3,7.1a16.72,16.72,0,0,1-7.41,3.56,72.91,72.91,0,0,1-8.29,0c-3.55-.3-6.81.3-9.77.3s-11.85-.89-11.85-.89l-2.67-1.78s-5,1.48-8.88,3-2.67-1.78.29-4.15,10.37-8.29,11.56-8.88,16.29-5,16.29-5Z" style="fill:#9e9e9e;stroke:#263238;stroke-miterlimit:10"></path><path d="M228.44,436.53s-7.71-3.55-9.78-3.55-16.88,5-18.95,6.51-4.15,15.7-2.67,16.59,2.67-1.78,3-3.55,4.45-11.26,4.45-11.26l-3,15.11s1.19,2.36,2.37.29,8.59-16.29,9.18-17.18a10.82,10.82,0,0,1,2.67-2.07s-1.48,6.52-2.67,12.74-.29,8,1.49,8.29,2.66-3.85,3.55-5.92,4.74-13.93,4.74-13.93" style="fill:#9e9e9e;stroke:#263238;stroke-miterlimit:10"></path><path d="M237,442.46s-8.88,9.18-10.07,11.25-1.18,2.37,2.08,2.37,13.33-6.52,14.21-7.41.6-3.55-1.48-5.33A5.25,5.25,0,0,0,237,442.46Z" style="fill:#9e9e9e;stroke:#263238;stroke-miterlimit:10"></path><path d="M292.46,441.44s-11.85,3.83-14.76,6-7.11,4.56-6.2,5.29,3.83,0,4.74-.73,5.1-1.46,5.1-1.46,4.92-2.92,8.75-5.28S296.83,440.34,292.46,441.44Z" style="fill:#9e9e9e;stroke:#263238;stroke-miterlimit:10"></path><path d="M357.87,421.38s-33,6-44.94,10.19-16.69,7.11-22.66,11.33S272.2,455.09,274,456.49s8.07-3.51,9.13-4.56,8.77-4.21,8.77-4.21l5.16-2.64s-7.77,9.57-10.57,12-.91,3.95,1.2,3.25,6.09-4.89,6.09-4.89L306.61,447s-5.27,7.38-7.73,9.48,2.81,3.87,3.87,2.11,6.32-6.32,6.32-6.32,8.77-4.56,10.88-6.32,7.37-6.67,7.37-6.67l39.32,3.16s2.46-1.4,1.06-9.48S357.87,421.38,357.87,421.38Z" style="fill:#9e9e9e;stroke:#263238;stroke-miterlimit:10"></path><path d="M384.55,359.24,403.86,407l-31.25,10.88,8.78,25.63s22.44.06,40-1,29.88-11.65,27.07-24.28-13.34-30.9-21.77-52.67-5.82-34.75-9.68-41.42-14.75-8.43-14.75-8.43l-6-1" style="fill:#F5DCF9"></path><path d="M445.5,431.51v-5h2.61c.11-.33.2-.66.28-1H445.5V413H447c-.11-.32-.23-.66-.34-1H445.5v-3.05c-.32-.83-.65-1.68-1-2.53V412H434v-12.5h7.54c-.15-.33-.29-.66-.44-1H434V386h1.4c-.16-.33-.31-.66-.46-1H434v-2.09c-.33-.74-.67-1.48-1-2.23V385H422.5v-12.5h7c-.14-.33-.28-.66-.41-1H422.5V359h1.87c-.11-.33-.21-.67-.31-1H422.5V352.3c-.38-1.58-.71-3.09-1-4.54V358H411v-12.5h10.08l-.18-1H411V332h8.21l-.15-1H411V318.74a28.31,28.31,0,0,0-2.7-1.27h-8.8v-2.24l-1-.18v2.42h-2.95l-.27,1h3.22V331H392l-.26,1h6.77v12.5H388.44l-.27,1H398.5V358H388V346.14l-1,3.79v8h-2.12l-.26,1H387v6.33l1,2.47V359h10.5v12.5h-9l.4,1h8.6V385H395l.41,1h3.14v7.77l1,2.47V386H410v12.5h-9.59l.41,1H410V412H399.5v-3.46l-1,.35V412h-8.94l-2.88,1H387v12.5H376.5v-9l-1,.35v8.6h-.29l1.29,3.76v-2.76H387v17h1v-17h10.5v16.87l1,0V426.47H410V443l1,0V426.47h10.5v16l1-.08V426.47H433v13.72l1-.38V426.47h10.5v6.28C444.85,432.34,445.19,431.93,445.5,431.51Zm-47-6H388V413h10.5Zm11.5,0H399.5V413H410Zm0-40.5H399.5v-12.5H410Zm0-13.5H399.5V359H410Zm0-13.5H399.5v-12.5H410Zm0-13.5H399.5V332H410Zm0-13.5H399.5v-12.5H410Zm11.5,94.5H411V413h10.5Zm0-13.5H411v-12.5h10.5Zm0-13.5H411V386h10.5Zm0-13.5H411v-12.5h10.5Zm0-13.5H411V359h10.5Zm11.5,54H422.5V413H433Zm0-13.5H422.5v-12.5H433Zm0-13.5H422.5V386H433Zm1,27V413h10.5v12.5Z" style="fill:#263238;opacity:0.2"></path><path d="M384.55,359.24,403.86,407l-31.25,10.88,8.78,25.63s22.44.06,40-1,29.88-11.65,27.07-24.28-13.34-30.9-21.77-52.67-5.82-34.75-9.68-41.42-14.75-8.43-14.75-8.43l-6-1" style="fill:none;stroke:#263238;stroke-miterlimit:10"></path><path d="M422.66,402.14a140,140,0,0,0-18.8,4.85s13.34-8.78,20.71-9.48" style="fill:none;stroke:#263238;stroke-miterlimit:10"></path><path d="M431.6,401.72a19.22,19.22,0,0,0-4.18-.14" style="fill:none;stroke:#263238;stroke-miterlimit:10"></path><path d="M381.74,414s7.1,6.79,9.2,12.05,1.33,19.55-.07,20.95-27.53,1.23-31.83-4.14c-1.12-1.4,6.55-4.63,2.69-12.36s-5.62-8.42-5.62-8.42-3.16-1.76,2.81-5.62S378.58,409.8,381.74,414Z" style="fill:#263238;stroke:#263238;stroke-miterlimit:10"></path></g><g id="freepik--Drink--inject-167"><polygon points="443.99 468.14 418.07 468.14 414.83 416.9 447.23 416.9 443.99 468.14" style="fill:#263238;stroke:#263238;stroke-linejoin:round"></polygon><rect x="413.4" y="416.98" width="35.27" height="7.46" style="fill:#fff;stroke:#263238;stroke-linejoin:round"></rect><polygon points="448.67 417.26 413.4 417.26 416.92 412.84 445.14 412.84 448.67 417.26" style="fill:#fff;stroke:#263238;stroke-linejoin:round"></polygon><polygon points="444.94 453.11 446.23 432.7 415.83 432.7 417.12 453.11 444.94 453.11" style="fill:#fff;stroke:#263238;stroke-linejoin:round"></polygon></g><g id="freepik--Device--inject-167"><polygon points="294.62 471.55 326.56 463.11 326.56 467.43 294.62 476.38 294.62 471.55" style="fill:#263238;stroke:#263238;stroke-linejoin:round"></polygon><polygon points="326.56 463.11 159.57 463.11 127.29 471.55 294.62 471.55 326.56 463.11" style="fill:#fff;stroke:#263238;stroke-linejoin:round"></polygon><rect x="127.29" y="375.05" width="167.33" height="101.33" style="fill:#fff;stroke:#263238;stroke-linejoin:round"></rect><path d="M294.62,389.71c-36.4,1.73-58.08,35.28-90.29,57.76-29.36,20.5-65.62,24-77,24.55v4.36H294.62Z" style="fill:#263238;stroke:#263238;stroke-linejoin:round"></path><rect x="127.29" y="471.55" width="167.33" height="4.83" style="fill:#fff;stroke:#263238;stroke-miterlimit:10"></rect></g><g id="freepik--Plant--inject-167"><path d="M77.75,438.12S63.81,415.82,75,403.27s29.27-6.51,33,5.11-4.18,31.14-4.18,31.14Z" style="fill:#F5DCF9;stroke:#263238;stroke-linecap:round;stroke-linejoin:round"></path><path d="M78.21,412.56c-2.32,0-11.15-3.25-13.94-7.43S61,391.65,68.92,391.65s10.69,13.94,10.69,13.94l.46,5.11" style="fill:#F5DCF9;stroke:#263238;stroke-linecap:round;stroke-linejoin:round"></path><path d="M85.36,403.88c-2.08-1-8.53-7.88-9.16-12.87s3.11-13.51,10.18-10,3.34,17.25,3.34,17.25l-1.87,4.78" style="fill:#F5DCF9;stroke:#263238;stroke-linecap:round;stroke-linejoin:round"></path><path d="M93.8,406.22c-1.16-2-2.72-11.29-.48-15.79s10.08-9.52,14-2.66-6.79,16.2-6.79,16.2l-4.21,2.94" style="fill:#F5DCF9;stroke:#263238;stroke-linecap:round;stroke-linejoin:round"></path><path d="M96.57,422.88c-.38-2.3,1.36-11.54,5-15s12.75-5.45,14.06,2.34-12,12.86-12,12.86l-5,1.3" style="fill:#F5DCF9;stroke:#263238;stroke-linecap:round;stroke-linejoin:round"></path><line x1="65.29" y1="399.52" x2="66.86" y2="401.99" style="fill:none;stroke:#fff;stroke-linecap:round;stroke-linejoin:round"></line><line x1="69.78" y1="405.58" x2="72.24" y2="407.59" style="fill:none;stroke:#fff;stroke-linecap:round;stroke-linejoin:round"></line><line x1="67.09" y1="394.81" x2="69.55" y2="398.4" style="fill:none;stroke:#fff;stroke-linecap:round;stroke-linejoin:round"></line><line x1="72.92" y1="401.32" x2="75.61" y2="406.25" style="fill:none;stroke:#fff;stroke-linecap:round;stroke-linejoin:round"></line><line x1="79.19" y1="389.43" x2="80.09" y2="392.12" style="fill:none;stroke:#fff;stroke-linecap:round;stroke-linejoin:round"></line><line x1="82.33" y1="397.05" x2="83.9" y2="399.3" style="fill:none;stroke:#fff;stroke-linecap:round;stroke-linejoin:round"></line><line x1="81.66" y1="384.05" x2="83.68" y2="388.53" style="fill:none;stroke:#fff;stroke-linecap:round;stroke-linejoin:round"></line><line x1="73.81" y1="415.67" x2="74.49" y2="419.7" style="fill:none;stroke:#fff;stroke-linecap:round;stroke-linejoin:round"></line><line x1="75.83" y1="423.51" x2="76.73" y2="426.88" style="fill:none;stroke:#fff;stroke-linecap:round;stroke-linejoin:round"></line><line x1="78.07" y1="415.89" x2="78.97" y2="420.37" style="fill:none;stroke:#fff;stroke-linecap:round;stroke-linejoin:round"></line><line x1="80.99" y1="423.51" x2="81.66" y2="426.88" style="fill:none;stroke:#fff;stroke-linecap:round;stroke-linejoin:round"></line><line x1="82.56" y1="410.06" x2="83.9" y2="416.34" style="fill:none;stroke:#fff;stroke-linecap:round;stroke-linejoin:round"></line><line x1="85.7" y1="422.39" x2="85.92" y2="425.31" style="fill:none;stroke:#fff;stroke-linecap:round;stroke-linejoin:round"></line><line x1="88.16" y1="408.04" x2="89.28" y2="413.87" style="fill:none;stroke:#fff;stroke-linecap:round;stroke-linejoin:round"></line><line x1="89.28" y1="419.93" x2="89.73" y2="425.98" style="fill:none;stroke:#fff;stroke-linecap:round;stroke-linejoin:round"></line><line x1="94.67" y1="410.28" x2="94.67" y2="415.22" style="fill:none;stroke:#fff;stroke-linecap:round;stroke-linejoin:round"></line><line x1="93.99" y1="421.5" x2="94.22" y2="425.31" style="fill:none;stroke:#fff;stroke-linecap:round;stroke-linejoin:round"></line><line x1="100.27" y1="386.96" x2="99.15" y2="389.66" style="fill:none;stroke:#fff;stroke-linecap:round;stroke-linejoin:round"></line><line x1="98.7" y1="392.79" x2="97.58" y2="396.61" style="fill:none;stroke:#fff;stroke-linecap:round;stroke-linejoin:round"></line><line x1="105.2" y1="392.12" x2="103.41" y2="395.71" style="fill:none;stroke:#fff;stroke-linecap:round;stroke-linejoin:round"></line><line x1="99.6" y1="399.75" x2="97.58" y2="401.99" style="fill:none;stroke:#fff;stroke-linecap:round;stroke-linejoin:round"></line><line x1="95.34" y1="391.9" x2="94.67" y2="394.81" style="fill:none;stroke:#fff;stroke-linecap:round;stroke-linejoin:round"></line><line x1="105.2" y1="408.04" x2="102.74" y2="412.08" style="fill:none;stroke:#fff;stroke-linecap:round;stroke-linejoin:round"></line><line x1="101.17" y1="414.54" x2="99.82" y2="418.13" style="fill:none;stroke:#fff;stroke-linecap:round;stroke-linejoin:round"></line><line x1="103.19" y1="419.93" x2="107.22" y2="417.68" style="fill:none;stroke:#fff;stroke-linecap:round;stroke-linejoin:round"></line><line x1="109.69" y1="408.04" x2="107.67" y2="411.41" style="fill:none;stroke:#fff;stroke-linecap:round;stroke-linejoin:round"></line><line x1="111.71" y1="411.85" x2="109.02" y2="413.87" style="fill:none;stroke:#fff;stroke-linecap:round;stroke-linejoin:round"></line><rect x="70.69" y="430.34" width="38.12" height="38.12" style="fill:#263238;stroke:#263238;stroke-linecap:round;stroke-linejoin:round"></rect></g></svg>